Coordinates
version=1
nRows=14
nColumns=40
inDegrees=yes

Units are S.I. units (second, meters, Newtons, ...)
Angles are in degrees.

endheader
time	pelvis_tilt	pelvis_list	pelvis_rotation	pelvis_tx	pelvis_ty	pelvis_tz	hip_flexion_r	hip_adduction_r	hip_rotation_r	knee_angle_r	knee_angle_r_beta	ankle_angle_r	subtalar_angle_r	mtp_angle_r	hip_flexion_l	hip_adduction_l	hip_rotation_l	knee_angle_l	knee_angle_l_beta	ankle_angle_l	subtalar_angle_l	mtp_angle_l	lumbar_extension	lumbar_bending	lumbar_rotation	arm_flex_r	arm_add_r	arm_rot_r	elbow_flex_r	pro_sup_r	wrist_flex_r	wrist_dev_r	arm_flex_l	arm_add_l	arm_rot_l	elbow_flex_l	pro_sup_l	wrist_flex_l	wrist_dev_l
      1.33000000	     -2.97548653	     -5.32454442	      6.52217322	     -0.14870312	      0.94633415	      1.48724540	     18.18849305	      3.64909570	    -19.55197270	    -20.78071137	     -0.36269183	      1.26669478	     -8.06796029	     -0.96693992	      9.09562332	     14.14343927	      8.35580388	    -54.54224137	     -0.95194169	     -0.91742246	     15.35776816	      1.42877247	     -0.11526838	      6.06240807	     -4.48826179	     -2.30925338	     -9.56666275	    -22.16858298	     15.38547608	     89.95437384	      0.00000000	      0.00000000	      0.31481578	      9.80566562	     -1.64307149	     21.08969785	     89.95437384	      0.00000000	      0.00000000
      1.34000000	     -2.88815298	     -5.23952754	      6.80546527	     -0.14096387	      0.94778692	      1.48834287	     17.17127066	      3.79861411	    -19.70995293	    -20.02642649	     -0.34952708	      1.51906724	     -8.01624596	     -0.97702634	     10.56879210	     14.05861609	      8.10344398	    -55.57389612	     -0.96994747	      0.28129594	     16.64760053	      1.53224030	     -0.33987113	      5.91643513	     -4.34989017	     -1.96717926	     -9.62288682	    -22.08065066	     15.78316025	     89.95437384	      0.00000000	      0.00000000	      0.00480964	      9.84697603	     -1.97750964	     20.29581018	     89.95437384	      0.00000000	      0.00000000
      1.35000000	     -2.86499892	     -5.06922518	      7.05527330	     -0.13347547	      0.94912989	      1.48936879	     16.29297269	      3.83227313	    -19.84387630	    -19.40922001	     -0.33875479	      1.74181769	     -7.96859063	     -0.98541350	     12.05467381	     13.83519501	      7.90473064	    -56.29141852	     -0.98247059	      1.39246786	     17.35601001	      1.76785869	     -0.52947215	      5.65740881	     -4.13758864	     -1.62303408	     -9.68734077	    -21.96459213	     16.18707000	     89.95437384	      0.00000000	      0.00000000	     -0.31313605	      9.90351545	     -2.28411210	     19.66283599	     89.95437384	      0.00000000	      0.00000000
      1.36000000	     -2.80015821	     -4.86806146	      7.20013089	     -0.12591481	      0.95054108	      1.49062403	     15.41272932	      3.84250655	    -20.00036155	    -18.85978972	     -0.32916543	      2.08026439	     -7.85257941	     -0.98826397	     13.36126134	     13.59091564	      7.83732195	    -56.71770345	     -0.98991067	      2.36476702	     17.75573356	      2.01105191	     -0.78958612	      5.36435515	     -3.84790905	     -1.22370159	     -9.75025410	    -21.67612230	     16.53691293	     89.95437384	      0.00000000	      0.00000000	     -0.60868948	      9.99750585	     -2.63008869	     19.00846259	     89.95437384	      0.00000000	      0.00000000
      1.37000000	     -2.81857214	     -4.55795304	      7.15307297	     -0.11843418	      0.95180194	      1.49197121	     14.67751001	      3.71325351	    -20.26657655	    -18.47183735	     -0.32239438	      2.31773916	     -7.77980881	     -0.99563786	     14.61791829	     13.29922185	      8.14751728	    -56.81025762	     -0.99152604	      2.87704708	     17.84501252	      2.07194559	     -0.97595361	      4.93828383	     -3.39616884	     -0.77316926	     -9.81920839	    -21.47806210	     16.82468888	     89.95437384	      0.00000000	      0.00000000	     -1.05811004	     10.09262111	     -2.75602981	     18.67110146	     89.95437384	      0.00000000	      0.00000000
      1.38000000	     -2.86822956	     -4.26979918	      7.07720591	     -0.11116614	      0.95296363	      1.49329179	     13.97911058	      3.61052493	    -20.43367048	    -18.02161556	     -0.31453653	      2.57260928	     -7.65221863	     -1.01109978	     15.85338490	     12.94080050	      8.38316643	    -56.64622562	     -0.98866315	      3.44498865	     17.96620288	      2.10882650	     -1.15960074	      4.53945999	     -2.90858498	     -0.28759374	     -9.92782564	    -21.24514096	     17.11935390	     89.95437384	      0.00000000	      0.00000000	     -1.45103553	     10.22322121	     -2.88058304	     18.30694974	     89.95437384	      0.00000000	      0.00000000
      1.39000000	     -2.46308750	     -3.49344979	      7.04835804	     -0.10348927	      0.95502596	      1.49358147	     12.61098941	      2.83389112	    -20.91861098	    -17.52903717	     -0.30593941	      3.03658799	     -5.49406180	     -2.28454915	     16.25234570	     11.73815388	      8.38696858	    -56.04879705	     -0.97823605	      6.49713344	     17.87699688	     12.20708900	     -1.83865603	      3.71708632	     -2.59121144	      0.10918895	    -10.17583541	    -19.76462537	     17.69988123	     89.95437384	      0.00000000	      0.00000000	     -1.80684570	     10.31909499	     -2.90441898	     17.79210177	     89.95437384	      0.00000000	      0.00000000
      1.40000000	     -2.61414492	     -3.23883285	      6.85697297	     -0.09643038	      0.95581760	      1.49496325	     12.12812224	      2.74236481	    -21.08086411	    -17.25112832	     -0.30108899	      3.23243962	     -5.51645856	     -2.29486756	     17.49803389	     11.42530373	      8.76787231	    -55.44216507	     -0.96764832	      6.69297075	     17.74961847	     12.07000163	     -1.90308159	      3.33776218	     -2.05773618	      0.63099299	    -10.30341038	    -19.59463338	     18.02039549	     89.95437384	      0.00000000	      0.00000000	     -2.26804866	     10.44481138	     -2.95726522	     17.61896760	     89.95437384	      0.00000000	      0.00000000
      1.41000000	     -2.59047054	     -2.57217303	      6.39755980	     -0.08892962	      0.95709334	      1.49629329	     11.29306075	      2.32297076	    -20.36974074	    -16.74006227	     -0.29216920	      3.39829813	     -5.23119149	     -2.40946852	     18.11220301	     10.62969603	      9.47782516	    -54.24086863	     -0.94668175	      7.05294001	     17.69869611	     12.06451729	     -2.16626795	      2.53304310	     -1.28446510	      1.21625279	    -10.45747428	    -19.07340011	     18.18317155	     89.95437384	      0.00000000	      0.00000000	     -2.69060178	     10.59439133	     -3.01264069	     17.28641823	     89.95437384	      0.00000000	      0.00000000
      1.42000000	     -2.16555326	     -1.86903566	      5.95957490	     -0.08099990	      0.95882495	      1.49732664	     10.01955571	      1.71481059	    -20.65633060	    -16.38165582	     -0.28591383	      3.74311049	     -4.00894958	     -3.70168509	     18.16039164	      9.88808645	     10.35565345	    -52.77182061	     -0.92104202	      7.35931918	     17.54513549	     12.85379452	     -2.83447771	      1.74362532	     -0.66478301	      1.80178015	    -10.67972172	    -17.94620544	     18.50807119	     89.95437384	      0.00000000	      0.00000000	     -3.19573930	     10.67544118	     -2.51470831	     17.05336854	     89.95437384	      0.00000000	      0.00000000
      1.43000000	     -2.16900480	     -1.34091937	      5.43022632	     -0.07360521	      0.95969662	      1.49867614	      9.34269263	      1.37274115	    -20.27264746	    -16.08901364	     -0.28080626	      4.04250622	     -3.94239982	     -4.08785317	     18.73869028	      9.31013859	     11.24228978	    -51.18621134	     -0.89336792	      7.45117117	     17.36369523	     12.86960167	     -3.02212068	      1.08372482	      0.08413947	      2.30839174	    -10.85652361	    -17.35607340	     18.93924553	     89.95437384	      0.00000000	      0.00000000	     -3.67786945	     10.79290760	     -2.33371318	     16.85018129	     89.95437384	      0.00000000	      0.00000000
      1.44000000	     -2.24051993	     -0.94540354	      4.99589847	     -0.06603365	      0.96027850	      1.49989508	      8.69130491	      1.17364481	    -19.82114172	    -15.68734377	     -0.27379580	      4.30313285	     -3.77335865	     -4.30315151	     19.39790968	      8.87180218	     11.99174352	    -49.53868255	     -0.86461312	      7.63199811	     17.07434503	     12.74252654	     -3.05862273	      0.55730028	      0.77102210	      2.83920761	    -11.03408306	    -16.98554393	     19.21218291	     89.95437384	      0.00000000	      0.00000000	     -4.17289248	     10.90725724	     -2.06363157	     16.63984178	     89.95437384	      0.00000000	      0.00000000
      1.45000000	     -2.26762550	     -0.47802986	      4.45058157	     -0.05848928	      0.96086485	      1.50115812	      8.06481227	      0.84183512	    -19.43410287	    -15.41536406	     -0.26904886	      4.59150040	     -3.45570228	     -4.54684865	     19.86976705	      8.44282904	     13.04055185	    -47.60330103	     -0.83083434	      7.44765047	     16.66656387	     12.61555627	     -3.14660655	     -0.04087927	      1.50288400	      3.39001240	    -11.24927712	    -16.23818489	     19.50753747	     89.95437384	      0.00000000	      0.00000000	     -4.64947079	     10.98521687	     -1.58765743	     16.36967193	     89.95437384	      0.00000000	      0.00000000
      1.46000000	     -2.13274094	     -0.02409990	      4.00660871	     -0.05086294	      0.96154091	      1.50202742	      7.29138248	      0.44871092	    -19.42709257	    -15.25162360	     -0.26619105	      5.09312120	     -2.87549400	     -5.18226314	     20.08419968	      7.93813714	     13.91043049	    -45.44575293	     -0.79317802	      7.21798714	     16.37117838	     12.32867180	     -3.41396044	     -0.58911007	      2.01978641	      3.94551633	    -11.47332788	    -15.37428078	     19.94740008	     89.95437384	      0.00000000	      0.00000000	     -5.10666072	     10.98142394	     -0.60051866	     16.08302753	     89.95437384	      0.00000000	      0.00000000
